<?xml version="1.0" standalone="no"?>
<!DOCTYPE svg PUBLIC "-//W3C//DTD SVG 20010904//EN"
 "http://www.w3.org/TR/2001/REC-SVG-20010904/DTD/svg10.dtd">
<svg version="1.0" xmlns="http://www.w3.org/2000/svg"
 width="1511.000000pt" height="1511.000000pt" viewBox="0 0 1511.000000 1511.000000"
 preserveAspectRatio="xMidYMid meet">
<metadata>
Created by potrace 1.14, written by Peter Selinger 2001-2017
</metadata>
<g transform="translate(0.000000,1511.000000) scale(0.100000,-0.100000)"
fill="#000000" stroke="none">
<path d="M13195 12954 c-536 -54 -1050 -227 -1520 -512 -545 -329 -1064 -817
-1437 -1348 -46 -67 -169 -265 -273 -440 -409 -692 -818 -1380 -1510 -2539
-1036 -1735 -1612 -2708 -2175 -3675 -117 -201 -221 -379 -232 -397 l-19 -32
328 -204 c388 -242 2640 -1629 2672 -1647 32 -17 36 -6 13 32 -42 70 -243 480
-302 618 -205 479 -300 818 -344 1225 -85 791 90 1861 450 2752 183 453 475
907 945 1468 1160 1385 3037 2918 5156 4211 90 54 161 103 160 109 -5 15 -249
118 -423 178 -263 90 -494 146 -759 183 -115 16 -626 28 -730 18z"/>
<path d="M9340 11779 c-599 -49 -1210 -195 -1805 -432 -752 -299 -1260 -622
-1756 -1117 -412 -411 -610 -691 -1261 -1786 -577 -969 -1509 -2544 -1514
-2557 -3 -9 439 -287 1403 -882 774 -478 1418 -875 1429 -882 23 -15 77 72
1431 2337 1037 1733 3143 5281 3143 5293 0 2 -33 7 -72 10 -40 4 -118 11 -173
17 -120 11 -677 11 -825 -1z"/>
<path d="M1605 8244 c-487 -48 -847 -141 -1242 -322 -118 -55 -330 -167 -350
-186 -9 -8 320 -216 1395 -880 774 -478 1414 -871 1422 -873 11 -2 163 247
525 857 281 473 511 866 513 874 2 8 -51 40 -140 84 -448 223 -882 357 -1363
423 -115 16 -217 21 -435 24 -157 1 -303 1 -325 -1z"/>
</g>
</svg>
